<svg xmlns="http://www.w3.org/2000/svg" width="429.00000000000006" height="107.18583051919647"
    viewBox="0 0 369.89473684210526 92.41835564825331" class="css-1j8o68f">
    <defs id="SvgjsDefs1906"></defs>
    <g id="SvgjsG1907" featurekey="symbolFeature-0"
        transform="matrix(0.3216621641031464,0,0,0.3216621641031464,-2.102242568767656,-2.0216561618958027)"
        fill="#ffffff">
        <g xmlns="http://www.w3.org/2000/svg">
            <g>
                <defs>
                    <rect id="b" x="7" y="6.5" width="286" height="287.1"></rect>
                </defs>
                <clipPath id="a">
                    <use xmlns:xlink="http://www.w3.org/1999/xlink" xlink:href="#b" style="" overflow="visible"></use>
                </clipPath>
                <g style="clip-path:url(#a);">
                    <path
                        d="M150,198.8c26.1,0,47.2,21.2,47.2,47.4s-21.1,47.4-47.2,47.4s-47.2-21.2-47.2-47.4S123.9,198.8,150,198.8z">
                    </path>
                    <path
                        d="M198.7,152.9c-0.1-1.1-0.1-2.2-0.1-3.3c0.1-12.4-4.5-24.4-13.3-33.2l-2-2c-8.7-8.7-20.5-13.4-32.8-13.3     c-0.2,0-0.5,0-0.7,0s-0.5,0-0.7,0c-12.3-0.2-24.1,4.6-32.8,13.3l-2,2c-8.8,8.8-13.3,20.8-13.3,33.2c0,1.1,0,2.2-0.1,3.3     c-1.3,23.3-19.8,42.4-43.1,44.3c-29.3,2.5-53.5-21.9-51.1-51.3c1.9-23.3,21-41.8,44.1-43.2c1-0.1,2.2-0.1,3.2-0.1     c12.4,0.1,24.3-4.5,33.1-13.3l2-2c8.8-8.8,13.3-20.8,13.3-33.2c0-1.6,0.1-3.3,0.2-4.9c2.1-22.9,20.8-41.1,43.7-42.8     C174,4.5,197,26.4,197,53.6c0,0.2,0,0.5,0,0.7c-0.2,12.3,4.6,24.2,13.3,32.9l2,2c8.8,8.8,20.7,13.4,33.1,13.3c1,0,2.1,0,3.2,0.1     c23.3,1.3,42.2,19.9,44.1,43.2c2.5,29.4-21.8,53.7-51.1,51.3C218.5,195.3,200.1,176.1,198.7,152.9z">
                    </path>
                </g>
            </g>
        </g>
    </g>
    <g id="SvgjsG1908" featurekey="nameFeature-0"
        transform="matrix(1.793925426567211,0,0,1.793925426567211,110.49310258180482,-26.48293698754708)"
        fill="#ffffff">
        <path
            d="M0.84 15.52 l20.4 0 l0 5.56 l-7.2 0 l0 18.92 l-6 0 l0 -18.92 l-7.2 0 l0 -5.56 z M24.360000000000003 15.52 l18.2 0 l0 5.56 l-12.2 0 l0 3.92 l9.8 0 l0 5.56 l-9.8 0 l0 3.88 l12.2 0 l0 5.56 l-18.2 0 l0 -24.48 z M65.2 33.16 l0 6.16 c-2.48 0.68 -4.96 0.96 -7.52 0.96 c-7.52 0 -12.56 -5.16 -12.56 -12.48 c0 -7.52 5.24 -12.48 12.52 -12.48 c2.52 0 5.16 0.2 7.56 0.96 l0 6.16 c-1.96 -0.96 -5.04 -1.32 -7.2 -1.32 c-4.88 0 -6.88 2 -6.88 6.64 c0 4.92 2.36 6.72 6.92 6.72 c2.04 0 5.36 -0.32 7.16 -1.32 z M83.48 15.52 l6 0 l0 24.48 l-6 0 l0 -9.44 l-8.8 0 l0 9.44 l-6 0 l0 -24.48 l6 0 l0 9.48 l8.8 0 l0 -9.48 z M109.64 15.52 l6 0 l0 24.48 l-6 0 l-9.6 -14.32 l0 14.32 l-6 0 l0 -24.48 l6 0 l9.6 14.32 l0 -14.32 z M132 34.64 c4.36 0 6.6 -2.8 6.6 -6.88 c0 -4.32 -2.4 -6.88 -6.6 -6.88 c-4.4 0 -6.6 2.8 -6.6 6.88 c0 4.24 2.44 6.88 6.6 6.88 z M132 40.2 c-7.52 0 -12.6 -5.12 -12.6 -12.44 c0 -7.56 5.32 -12.44 12.6 -12.44 c7.56 0 12.6 5.08 12.6 12.44 c0 7.6 -5.28 12.44 -12.6 12.44 z">
        </path>
    </g>
    <g id="SvgjsG1909" featurekey="nameFeature-1"
        transform="matrix(1.443656043969995,0,0,1.443656043969995,108.70846426105174,33.883185716615465)"
        fill="#ffffff">
        <path
            d="M2.28 15.52 l18.2 0 l0 5.56 l-12.2 0 l0 3.92 l9.8 0 l0 5.56 l-9.8 0 l0 9.44 l-6 0 l0 -24.48 z M34.8 34.64 c4.36 0 6.6 -2.8 6.6 -6.88 c0 -4.32 -2.4 -6.88 -6.6 -6.88 c-4.4 0 -6.6 2.8 -6.6 6.88 c0 4.24 2.44 6.88 6.6 6.88 z M34.8 40.2 c-7.52 0 -12.6 -5.12 -12.6 -12.44 c0 -7.56 5.32 -12.44 12.6 -12.44 c7.56 0 12.6 5.08 12.6 12.44 c0 7.6 -5.28 12.44 -12.6 12.44 z M57.120000000000005 21.16 l0 5.84 l5.6 0 c1.84 0 2.92 -1.08 2.92 -2.92 s-1.08 -2.92 -2.92 -2.92 l-5.6 0 z M66.2 30.96 c1.12 1.52 2.24 3.04 3.4 4.52 c1.12 1.48 2.24 3 3.36 4.52 l-7.32 0 c-1.44 -1.92 -2.84 -3.84 -4.24 -5.76 c-1.4 -1.88 -2.84 -3.8 -4.28 -5.72 l0 11.48 l-6 0 l0 -24.48 l11.6 0 c4.56 0 8.44 3.48 8.44 8.08 c0 3.24 -2 6.08 -4.96 7.36 z M101 15.52 l5.84 0 l-4.52 24.48 l-8.88 0 l-3.2 -14.28 l-3.4 14.28 l-9.36 0 l-3.96 -24.48 l6.12 0 l2.76 18.32 l3.6 -14.28 l8.52 0 l3.44 14.28 z M124.6 35.04 l-9 0 l-1.76 4.96 l-6.52 0 l9.8 -24.48 l6 0 l9.8 24.48 l-6.56 0 z M117.56 29.48 l5.08 0 l-2.52 -7.12 z M141.35999999999999 21.16 l0 5.84 l5.6 0 c1.84 0 2.92 -1.08 2.92 -2.92 s-1.08 -2.92 -2.92 -2.92 l-5.6 0 z M150.44 30.96 c1.12 1.52 2.24 3.04 3.4 4.52 c1.12 1.48 2.24 3 3.36 4.52 l-7.32 0 c-1.44 -1.92 -2.84 -3.84 -4.24 -5.76 c-1.4 -1.88 -2.84 -3.8 -4.28 -5.72 l0 11.48 l-6 0 l0 -24.48 l11.6 0 c4.56 0 8.44 3.48 8.44 8.08 c0 3.24 -2 6.08 -4.96 7.36 z M168.32 40 l-8.6 0 l0 -24.48 l8.6 0 c7.48 0 12.6 4.88 12.6 12.24 c0 7.56 -5.4 12.24 -12.6 12.24 z M165.72 21.08 l0 13.36 l2.6 0 c4.24 0 6.6 -2.68 6.6 -6.68 c0 -0.92 -0.12 -1.76 -0.36 -2.6 c-1.04 -2.92 -3.32 -4.08 -6.24 -4.08 l-2.6 0 z">
        </path>
    </g>
</svg>